<svg width="16" height="16" viewBox="0 0 16 16" fill="none" xmlns="http://www.w3.org/2000/svg">
<path d="M8.57439 0.0205433C3.70134 -0.323531 -0.323531 3.70134 0.0205433 8.57439C0.308606 12.8073 4.0054 16 8.24632 16H11.199C11.6391 16 11.9991 15.6399 11.9991 15.1998C11.9991 14.7597 11.6391 14.3997 11.199 14.3997H8.26233C5.27768 14.3997 2.54109 12.4632 1.79693 9.57461C0.60467 4.93361 4.9256 0.60467 9.56661 1.80493C12.4632 2.54109 14.3997 5.27768 14.3997 8.26233V9.14252C14.3997 9.77465 13.8315 10.3988 13.1994 10.3988C12.5673 10.3988 11.9991 9.77465 11.9991 9.14252V8.1423C11.9991 6.13387 10.5748 4.32547 8.5904 4.04541C5.86981 3.65333 3.57331 6.00584 4.06142 8.74243C4.33348 10.2708 5.52573 11.535 7.03806 11.8951C8.51038 12.2392 9.91068 11.7671 10.8309 10.8309C11.543 11.8071 12.9673 12.3192 14.2716 11.7991C15.3439 11.375 16 10.2788 16 9.12651V8.25432C16 4.0054 12.8073 0.308606 8.57439 0.0205433ZM7.99827 10.3988C6.66998 10.3988 5.59775 9.32656 5.59775 7.99827C5.59775 6.66998 6.66998 5.59775 7.99827 5.59775C9.32656 5.59775 10.3988 6.66998 10.3988 7.99827C10.3988 9.32656 9.32656 10.3988 7.99827 10.3988Z" fill="white"/>
</svg>
