<svg width="12" height="16" viewBox="0 0 12 16" fill="none" xmlns="http://www.w3.org/2000/svg">
<path d="M5.75244 0C2.57216 0 0 2.57216 0 5.75244C0 9.17925 3.63225 13.9045 5.12789 15.7042C5.4566 16.0986 6.0565 16.0986 6.38521 15.7042C7.87262 13.9045 11.5049 9.17925 11.5049 5.75244C11.5049 2.57216 8.93272 0 5.75244 0ZM5.75244 7.80688C4.61839 7.80688 3.698 6.88649 3.698 5.75244C3.698 4.61839 4.61839 3.698 5.75244 3.698C6.88649 3.698 7.80688 4.61839 7.80688 5.75244C7.80688 6.88649 6.88649 7.80688 5.75244 7.80688Z" fill="white"/>
</svg>
